# xmcd
#
# Track frame offsets:
# 182
# 16075
# 33007
# 52060
# 66872
# 86160
# 103575
# 119957
# 133340
# 148607
# 164530
# 176370
# 191060
#
# Disc length: 2740 seconds
#
#
# Revision: 4
# Processed by: cddbd v1.5.1PL0 Copyright (c) Steve Scherf et al.
# Submitted via: FreeRIP 2.53 
#
DISCID=be0ab20d
DTITLE=Leandro and Leonardo - Leandro and Leonardo Vol.8 (1994)
DYEAR=1994
DGENRE=Country
TTITLE0=Mulher Brasileira
TTITLE1=Não Sei Mais Dormir Sozinho
TTITLE2=25 Horas Por Dia
TTITLE3=Saudades Dela
TTITLE4=Dor De Amor Não Tem Jeito
TTITLE5=Índia
TTITLE6=Diga Pra Mim
TTITLE7=Casa Separa
TTITLE8=Cavaleiro Do Asfalto
TTITLE9=Brigar Com Ele
TTITLE10=Dod i De Amor
TTITLE11=Separados
TTITLE12=Achei Uma Louca
EXTD=YEAR: 1994
EXTT0=
EXTT1=
EXTT2=
EXTT3=
EXTT4=
EXTT5=
EXTT6=
EXTT7=
EXTT8=
EXTT9=
EXTT10=
EXTT11=
EXTT12=
PLAYORDER=
